<svg width="23" height="23" viewBox="0 0 23 23" fill="none" xmlns="http://www.w3.org/2000/svg">
<g clip-path="url(#clip0)">
<path d="M11.5266 19.2206C11.1262 19.2206 10.8016 19.5556 10.8016 19.9689V22.0964C10.8016 22.5096 11.1262 22.8446 11.5266 22.8446C11.9271 22.8446 12.2516 22.5096 12.2516 22.0964V19.9689C12.2516 19.5555 11.927 19.2206 11.5266 19.2206Z" fill="#282B3D"/>
<path d="M11.5266 4.54136C11.9271 4.54136 12.2516 4.20634 12.2516 3.79309V1.66539C12.2516 1.25214 11.9271 0.917114 11.5266 0.917114C11.1262 0.917114 10.8016 1.25214 10.8016 1.66539V3.79309C10.8016 4.20634 11.1262 4.54136 11.5266 4.54136Z" fill="#282B3D"/>
<path d="M5.47422 17.0704L4.01614 18.5746C3.73292 18.8667 3.73282 19.3405 4.01585 19.6327C4.15746 19.7789 4.34306 19.852 4.52865 19.852C4.71415 19.852 4.89955 19.779 5.04117 19.633L6.49925 18.1289C6.78247 17.8368 6.78257 17.363 6.49954 17.0707C6.21631 16.7784 5.75735 16.7784 5.47422 17.0704Z" fill="#282B3D"/>
<path d="M17.0681 6.90966C17.2536 6.90966 17.4391 6.83663 17.5807 6.69056L19.0385 5.18643C19.3217 4.8942 19.3218 4.4205 19.0387 4.12817C18.7556 3.83584 18.2967 3.83574 18.0134 4.12807L16.5555 5.6322C16.2724 5.92433 16.2723 6.39814 16.5554 6.69036C16.6969 6.83663 16.8825 6.90966 17.0681 6.90966Z" fill="#282B3D"/>
<path d="M4.41625 11.881C4.41625 11.4678 4.09166 11.1328 3.69127 11.1328H1.63001C1.22963 11.1328 0.905029 11.4678 0.905029 11.881C0.905029 12.2943 1.22963 12.6293 1.63001 12.6293H3.69127C4.09166 12.6293 4.41625 12.2943 4.41625 11.881Z" fill="#282B3D"/>
<path d="M21.4254 11.1328H19.3632C18.9627 11.1328 18.6382 11.4678 18.6382 11.881C18.6382 12.2943 18.9627 12.6293 19.3632 12.6293H21.4254C21.8259 12.6293 22.1504 12.2943 22.1504 11.881C22.1504 11.4679 21.8259 11.1328 21.4254 11.1328Z" fill="#282B3D"/>
<path d="M5.47403 6.69056C5.61555 6.83663 5.80115 6.90966 5.98664 6.90966C6.17214 6.90966 6.35774 6.83663 6.49925 6.69056C6.78238 6.39834 6.78238 5.92453 6.49925 5.6323L5.04195 4.12817C4.75882 3.83594 4.29976 3.83594 4.01673 4.12817C3.7336 4.42039 3.7336 4.8942 4.01673 5.18633L5.47403 6.69056Z" fill="#282B3D"/>
<path d="M17.5815 17.0707C17.2984 16.7784 16.8393 16.7783 16.5562 17.0706C16.273 17.3628 16.273 17.8366 16.5561 18.1287L18.0132 19.6329C18.1548 19.779 18.3403 19.8521 18.5259 19.8521C18.7114 19.8521 18.897 19.779 19.0385 19.633C19.3217 19.3407 19.3217 18.8669 19.0386 18.5748L17.5815 17.0707Z" fill="#282B3D"/>
<path d="M11.5273 6.05676C8.41601 6.05676 5.88477 8.66954 5.88477 11.881C5.88477 15.0924 8.41601 17.7051 11.5273 17.7051C14.639 17.7051 17.1704 15.0924 17.1704 11.881C17.1704 8.66954 14.6389 6.05676 11.5273 6.05676ZM11.5273 16.2086C9.21552 16.2086 7.33473 14.2672 7.33473 11.881C7.33473 9.49474 9.21552 7.55331 11.5273 7.55331C13.8394 7.55331 15.7204 9.49474 15.7204 11.881C15.7204 14.2672 13.8394 16.2086 11.5273 16.2086Z" fill="#282B3D"/>
</g>
<defs>
<clipPath id="clip0">
<rect width="21.2454" height="21.9281" fill="white" transform="translate(0.905029 0.916809)"/>
</clipPath>
</defs>
</svg>
