<svg width="23" height="23" viewBox="0 0 23 23" fill="none" xmlns="http://www.w3.org/2000/svg">
<g clip-path="url(#clip0)">
<path d="M22.1107 13.564C22.0395 13.3865 21.8819 13.2616 21.6973 13.2362C19.9981 13.0035 18.536 11.8457 17.8813 10.2147C17.2267 8.58352 17.4674 6.6976 18.5095 5.29295C18.6226 5.14035 18.6485 4.93699 18.5773 4.75941C18.506 4.58182 18.3485 4.45695 18.1639 4.43167C17.1473 4.29229 16.1082 4.43325 15.1589 4.83904C13.3635 5.60661 12.0991 7.20328 11.6885 9.07915C10.8569 8.10958 9.63127 7.50955 8.31557 7.50955C5.85719 7.50955 3.85717 9.53298 3.85717 12.0201C3.85717 12.0288 3.85717 12.0375 3.85724 12.0463C2.20828 12.1743 0.905029 13.5742 0.905029 15.2765C0.905029 17.0628 2.33998 18.516 4.1038 18.516H12.685C14.231 18.516 15.5779 17.6376 16.2647 16.3482C16.6433 16.4263 17.0244 16.4658 17.4047 16.4658C18.1633 16.4658 18.9181 16.3107 19.639 16.0025C20.5882 15.5966 21.4195 14.9379 22.0429 14.0975C22.1561 13.945 22.182 13.7416 22.1107 13.564ZM12.6849 17.4389H4.1038C2.91542 17.4389 1.94863 16.4688 1.94863 15.2765C1.94863 14.0841 2.91542 13.1139 4.1038 13.1139C4.17713 13.1139 4.25867 13.1196 4.36025 13.1319C4.52145 13.1516 4.68196 13.0924 4.79501 12.9723C4.908 12.8523 4.96053 12.6849 4.93715 12.5192C4.91301 12.3484 4.90077 12.1804 4.90077 12.0201C4.90077 10.1269 6.43263 8.58668 8.31557 8.58668C9.8091 8.58668 11.1502 9.58784 11.5827 11.0231C11.5883 11.0433 11.595 11.0629 11.6028 11.082C11.6936 11.3141 11.9297 11.4537 12.1726 11.4112C12.341 11.3821 12.5133 11.3673 12.6849 11.3673C14.3504 11.3673 15.7054 12.7292 15.7054 14.4031C15.7054 16.077 14.3504 17.4389 12.6849 17.4389ZM19.2396 15.0073C18.4066 15.3634 17.5194 15.4699 16.645 15.3243C16.7122 15.0279 16.749 14.7199 16.749 14.4031C16.749 12.1353 14.9259 10.2903 12.685 10.2903C12.6533 10.2903 12.6215 10.2925 12.5898 10.2932C12.635 8.34454 13.7798 6.59463 15.5584 5.83431C16.0714 5.61494 16.6164 5.48985 17.167 5.46242C16.3491 7.04358 16.2427 8.94616 16.9173 10.6269C17.5917 12.3075 18.9705 13.5752 20.6319 14.0964C20.2237 14.4787 19.7527 14.788 19.2396 15.0073Z" fill="#282B3D"/>
</g>
<defs>
<clipPath id="clip0">
<rect width="21.2454" height="21.9281" fill="white" transform="translate(0.905029 0.483704)"/>
</clipPath>
</defs>
</svg>
