<svg width="24" height="24" viewBox="0 0 24 24" fill="none" xmlns="http://www.w3.org/2000/svg">
<path d="M6.23178 17.3598C5.87821 17.7841 5.93554 18.4147 6.35982 18.7682C6.78409 19.1218 7.41466 19.0645 7.76822 18.6402L6.23178 17.3598ZM17.9959 5.90946C17.9459 5.35945 17.4595 4.95411 16.9095 5.00411L7.94643 5.81893C7.39641 5.86893 6.99107 6.35534 7.04107 6.90536C7.09107 7.45537 7.57748 7.86072 8.1275 7.81071L16.0946 7.08643L16.8189 15.0536C16.8689 15.6036 17.3553 16.0089 17.9054 15.9589C18.4554 15.9089 18.8607 15.4225 18.8107 14.8725L17.9959 5.90946ZM7.76822 18.6402L17.7682 6.64018L16.2318 5.35982L6.23178 17.3598L7.76822 18.6402Z" fill="#282B3D"/>
</svg>