<svg width="23" height="23" viewBox="0 0 23 23" fill="none" xmlns="http://www.w3.org/2000/svg">
<g clip-path="url(#clip0)">
<path d="M16.6231 16.0331C16.7702 15.5242 16.8466 14.9925 16.8466 14.4594C16.8466 11.4323 14.4606 8.96967 11.5277 8.96967C8.59491 8.96967 6.20891 11.4323 6.20891 14.4594C6.20891 14.9926 6.2853 15.5242 6.43236 16.0331H0.905029V17.3179H22.1504V16.0331H16.6231ZM15.307 16.033H7.74854C7.55285 15.535 7.45376 15.0073 7.45376 14.4593C7.45376 12.1408 9.28132 10.2545 11.5277 10.2545C13.7741 10.2545 15.6017 12.1408 15.6017 14.4593C15.6017 15.0073 15.5027 15.535 15.307 16.033Z" fill="#282B3D"/>
<path d="M12.1502 5.11713H10.9053V7.68682H12.1502V5.11713Z" fill="#282B3D"/>
<path d="M15.5193 6.0507L14.2713 8.27435L15.3497 8.91623L16.5977 6.69258L15.5193 6.0507Z" fill="#282B3D"/>
<path d="M19.059 9.23957L16.9008 10.5204L17.5234 11.633L19.6816 10.3521L19.059 9.23957Z" fill="#282B3D"/>
<path d="M18.0916 13.8242L18.0886 15.109L20.5783 15.1105L20.5813 13.8257L18.0916 13.8242Z" fill="#282B3D"/>
<path d="M7.50209 6.04986L6.42371 6.69159L7.67136 8.91514L8.74974 8.27341L7.50209 6.04986Z" fill="#282B3D"/>
<path d="M3.96113 9.23818L3.33856 10.3507L5.49682 11.6316L6.11938 10.5191L3.96113 9.23818Z" fill="#282B3D"/>
<path d="M4.92927 13.8262L2.43958 13.8292L2.44112 15.114L4.93081 15.111L4.92927 13.8262Z" fill="#282B3D"/>
</g>
<defs>
<clipPath id="clip0">
<rect width="21.2454" height="21.9281" fill="white" transform="translate(0.905029 0.253479)"/>
</clipPath>
</defs>
</svg>
