<svg width="19" height="19" viewBox="0 0 19 19" fill="none" xmlns="http://www.w3.org/2000/svg">
<g clip-path="url(#clip0)">
<path d="M17.6613 10.7506C17.4767 10.703 17.2921 10.7506 17.1305 10.8697C16.5305 11.3938 15.8381 11.8225 15.0766 12.1083C14.3611 12.3942 13.5765 12.5371 12.7457 12.5371C10.8763 12.5371 9.16855 11.751 7.94541 10.4886C6.72227 9.22616 5.96069 7.4635 5.96069 5.53411C5.96069 4.72424 6.09916 3.93819 6.32994 3.22359C6.5838 2.46136 6.95305 1.77059 7.43769 1.1751C7.64539 0.913083 7.59924 0.531968 7.34538 0.317591C7.18383 0.198492 6.9992 0.150853 6.81458 0.198492C4.85294 0.746345 3.14515 1.96115 1.92201 3.58089C0.745025 5.17681 0.0296021 7.15384 0.0296021 9.32144C0.0296021 11.9178 1.04504 14.2759 2.70667 15.991C4.3683 17.706 6.65303 18.754 9.16855 18.754C11.2917 18.754 13.2534 17.9918 14.8227 16.7294C16.4151 15.4431 17.569 13.609 18.0536 11.5128C18.169 11.1556 17.9844 10.8221 17.6613 10.7506ZM14.1304 15.7289C12.7918 16.8246 11.084 17.4916 9.21471 17.4916C7.02228 17.4916 5.03756 16.5626 3.60672 15.0858C2.17587 13.609 1.27582 11.5605 1.27582 9.29762C1.27582 7.41586 1.87585 5.70084 2.91437 4.3193C3.62979 3.36651 4.52984 2.58046 5.56836 2.03261C5.45297 2.29463 5.33758 2.55664 5.24527 2.84248C4.94525 3.69999 4.80678 4.60514 4.80678 5.55792C4.80678 7.8208 5.70683 9.89311 7.13767 11.3699C8.56852 12.8468 10.5763 13.7757 12.7687 13.7757C13.738 13.7757 14.6612 13.609 15.515 13.2755C15.8151 13.1564 16.1151 13.0373 16.392 12.8944C15.8381 13.9901 15.0766 14.9667 14.1304 15.7289Z" fill="#282B3D"/>
</g>
<defs>
<clipPath id="clip0">
<rect width="18.0586" height="18.6389" fill="white" transform="translate(0.0296021 0.147034)"/>
</clipPath>
</defs>
</svg>
